<?xml version="1.0" standalone="no"?>
<!DOCTYPE svg PUBLIC "-//W3C//DTD SVG 20010904//EN"
 "http://www.w3.org/TR/2001/REC-SVG-20010904/DTD/svg10.dtd">
<svg version="1.0" xmlns="http://www.w3.org/2000/svg"
 width="200px" height="70px" viewBox="0 0 664 222"
 preserveAspectRatio="xMidYMid meet" style="background-color: #A5C4CF; border: none;">

<g transform="translate(0.000000,222.000000) scale(0.100000,-0.100000)"
fill="#2E3237" stroke="none">
<path d="M0 1110 l0 -1110 3320 0 3320 0 0 1110 0 1110 -3320 0 -3320 0 0
-1110z m3140 724 c19 -11 46 -40 60 -65 l25 -44 0 -495 c0 -481 -1 -496 -21
-530 -11 -19 -40 -46 -65 -60 -38 -21 -60 -25 -166 -28 -67 -3 -133 -2 -147 2
-55 14 -74 68 -36 106 17 17 33 20 124 20 89 0 107 3 130 21 l26 20 0 448 c0
388 -2 449 -16 469 l-15 22 -1141 0 c-1048 0 -1143 -1 -1160 -17 -17 -15 -18
-43 -18 -468 0 -374 2 -455 14 -471 14 -18 36 -19 845 -22 l831 -2 0 210 0
210 80 0 80 0 2 -232 3 -231 120 -74 c66 -40 126 -81 133 -90 32 -44 -8 -123
-63 -123 -33 0 -54 11 -222 116 l-137 84 -571 0 -571 0 -168 -105 c-92 -58
-169 -105 -172 -105 -2 0 -4 47 -4 105 l0 105 -102 0 c-57 0 -119 5 -138 10
-41 11 -94 61 -109 103 -15 39 -15 985 0 1024 15 40 48 73 94 94 38 18 90 19
1240 16 1190 -2 1200 -2 1235 -23z m-2120 -264 l0 -80 -90 0 -90 0 0 80 0 80
90 0 90 0 0 -80z m260 0 l0 -80 -80 0 -80 0 0 80 0 80 80 0 80 0 0 -80z m280
0 l0 -80 -85 0 -85 0 0 80 0 80 85 0 85 0 0 -80z m280 0 l0 -80 -85 0 -85 0 0
80 0 80 85 0 85 0 0 -80z m290 0 l0 -80 -85 0 -85 0 0 80 0 80 85 0 85 0 0
-80z m290 0 l0 -80 -84 0 c-47 0 -86 3 -88 8 -2 4 -2 40 0 80 l4 72 84 0 84 0
0 -80z m510 0 l0 -80 -200 0 -200 0 0 73 c0 41 3 77 7 80 3 4 93 7 200 7 l193
0 0 -80z m883 -71 c51 -14 104 -63 117 -107 26 -93 5 -199 -47 -241 -18 -14
-33 -32 -33 -38 0 -7 23 -93 50 -191 28 -98 50 -181 50 -185 0 -4 -21 -7 -48
-7 l-47 0 -50 183 -50 182 -47 3 -48 3 0 -185 0 -186 -50 0 -50 0 0 390 0 390
108 0 c59 0 124 -5 145 -11z m480 -11 c16 -61 157 -733 157 -745 0 -9 -14 -13
-45 -13 -25 0 -45 1 -46 3 0 1 -8 45 -17 97 l-18 95 -84 0 -84 0 -19 -97 -20
-98 -49 0 c-42 0 -49 2 -44 18 3 9 40 179 81 377 42 198 78 366 80 373 3 7 23
12 54 12 42 0 50 -3 54 -22z m371 -1 c3 -13 33 -149 66 -303 33 -153 63 -286
67 -294 7 -17 17 24 94 378 l52 242 54 0 53 0 0 -193 c0 -107 3 -282 7 -390
l6 -197 -40 0 -40 0 -6 167 c-4 91 -7 218 -8 282 0 78 -3 109 -9 96 -5 -11
-32 -119 -60 -240 -77 -333 -68 -305 -101 -305 -16 0 -29 3 -29 6 0 22 -124
541 -131 549 -5 5 -9 -100 -9 -250 0 -143 -3 -270 -6 -282 -5 -19 -13 -23 -44
-23 l-38 0 4 298 c3 163 7 339 10 390 l6 92 48 0 c42 0 49 -3 54 -23z m836
-12 l0 -35 -65 0 -65 0 0 -355 0 -355 -50 0 -50 0 0 355 0 355 -70 0 -70 0 0
35 0 35 185 0 185 0 0 -35z m190 -355 l0 -390 -50 0 -50 0 0 390 0 390 50 0
50 0 0 -390z m315 135 c59 -140 112 -255 117 -255 4 0 8 115 8 255 l0 255 40
0 40 0 0 -390 0 -390 -33 0 -32 0 -109 261 c-60 143 -113 262 -118 265 -4 3
-8 -114 -8 -260 l0 -266 -40 0 -40 0 0 390 0 390 34 0 33 0 108 -255z m-4990
75 l0 -75 -87 -3 -88 -3 0 81 0 81 88 -3 87 -3 0 -75z m323 73 l53 -6 -3 -76
-3 -76 -82 -3 -83 -3 0 86 0 85 33 0 c17 0 56 -3 85 -7z m360 0 l53 -6 -3 -76
-3 -76 -82 -3 -83 -3 0 86 0 85 33 0 c17 0 56 -3 85 -7z m1155 1 l77 -7 0 -78
0 -79 -125 0 -125 0 0 85 0 85 48 0 c27 0 83 -3 125 -6z m-815 -81 l-3 -78
-82 -3 -83 -3 0 81 0 80 85 0 86 0 -3 -77z m270 0 l-3 -78 -85 0 -85 0 -3 64
c-2 35 -1 70 2 77 4 10 28 14 91 14 l86 0 -3 -77z m260 0 l-3 -78 -87 -3 -88
-3 0 81 0 80 90 0 91 0 -3 -77z m-328 -238 l0 -75 -700 0 -700 0 0 75 0 75
700 0 700 0 0 -75z m690 0 l0 -75 -110 0 -110 0 0 53 c0 99 -2 97 116 97 l104
0 0 -75z m-692 -217 l3 -78 -501 0 -500 0 0 80 0 80 498 -2 497 -3 3 -77z
m-1208 2 l0 -71 -92 3 -93 3 -3 68 -3 67 96 0 95 0 0 -70z m1900 -10 l0 -70
-105 0 c-77 0 -105 3 -106 13 -1 12 -1 120 0 125 1 1 48 2 106 2 l105 0 0 -70z"/>
<path d="M3660 1304 l0 -136 60 4 c49 4 66 9 88 31 25 25 27 34 27 108 0 76
-2 82 -28 105 -23 20 -39 24 -88 24 l-59 0 0 -136z"/>
<path d="M4230 1341 c0 -5 -13 -81 -30 -169 -16 -89 -30 -163 -30 -166 0 -9
128 -7 133 2 7 11 -57 342 -65 342 -5 0 -8 -4 -8 -9z"/>
</g>
</svg>
