<?xml version="1.0" standalone="no"?>
<!DOCTYPE svg PUBLIC "-//W3C//DTD SVG 20010904//EN"
 "http://www.w3.org/TR/2001/REC-SVG-20010904/DTD/svg10.dtd">
<svg version="1.0" xmlns="http://www.w3.org/2000/svg"
 width="200.000000pt" height="82.000000pt" viewBox="0 0 626.000000 258.000000"
 preserveAspectRatio="xMidYMid meet" style="background-color: #A5C4CF; border: none;">

<g transform="translate(-1.000000,258.000000) scale(0.100500,-0.100000)"
fill="#2E3237" stroke="none">
<path d="M0 1290 l0 -1290 3130 0 3130 0 0 1290 0 1290 -3130 0 -3130 0 0
-1290z m1641 526 c173 -136 314 -252 314 -256 0 -4 -58 -54 -128 -109 -101
-80 -127 -106 -121 -119 13 -30 16 -70 8 -85 -5 -8 -70 -63 -144 -121 l-135
-106 -8 62 -8 63 62 55 c46 41 61 61 56 73 -10 27 -31 20 -101 -35 l-65 -53
-1 -302 0 -302 -24 -27 c-33 -39 -89 -39 -122 0 l-24 27 -1 302 0 302 -63 50
c-35 28 -72 50 -82 50 -38 0 -25 -33 36 -85 l60 -52 0 -64 c0 -35 -3 -64 -6
-64 -9 0 -267 200 -281 218 -16 20 -17 74 -1 90 16 16 3 28 -136 137 -63 50
-115 92 -115 95 0 3 151 125 336 272 333 266 336 268 358 250 12 -9 164 -129
336 -266z m992 -92 c91 -31 133 -112 125 -239 -6 -81 -33 -144 -72 -165 -14
-7 -26 -20 -26 -29 1 -9 27 -108 59 -221 l58 -205 -55 -3 c-30 -2 -58 1 -62 5
-4 4 -31 97 -61 206 l-54 197 -47 0 -48 0 0 -205 0 -206 -62 3 -63 3 -3 438
-2 437 133 0 c96 0 147 -5 180 -16z m517 11 c0 -2 41 -194 90 -426 50 -232 90
-428 90 -436 0 -9 -16 -13 -54 -13 -63 0 -57 -9 -81 128 l-17 92 -88 0 c-61 0
-89 -4 -93 -12 -2 -7 -12 -57 -22 -110 l-17 -98 -60 0 c-52 0 -59 2 -54 18 2
9 43 202 91 427 47 226 88 416 90 423 3 8 25 12 65 12 33 0 60 -2 60 -5z m415
-17 c3 -13 37 -169 76 -348 39 -178 71 -326 73 -327 1 -1 33 138 70 310 37
172 72 329 77 350 l10 37 58 0 59 0 6 -242 c3 -134 8 -332 10 -440 l4 -198
-47 0 -48 0 -6 83 c-4 45 -7 185 -7 311 0 126 -2 227 -4 225 -2 -2 -34 -132
-71 -289 -36 -157 -68 -295 -72 -307 -4 -18 -12 -23 -39 -23 -39 0 -28 -34
-115 345 l-64 280 -6 -245 c-3 -135 -7 -275 -8 -312 l-1 -68 -50 0 -50 0 5
307 c3 170 8 368 11 441 l6 132 59 0 c53 0 59 -2 64 -22z m935 -23 l0 -45 -75
0 -75 0 0 -395 0 -395 -60 0 -60 0 0 395 0 395 -75 0 -75 0 0 45 0 45 210 0
210 0 0 -45z m210 -395 l0 -440 -60 0 -60 0 0 440 0 440 60 0 60 0 0 -440z
m345 159 l120 -280 3 280 2 281 55 0 55 0 0 -441 0 -440 -42 3 -42 3 -120 287
-121 288 -5 -288 -5 -287 -52 -3 -53 -3 0 440 0 441 43 0 42 0 120 -281z"/>
<path d="M2450 1510 l0 -140 55 0 c100 0 135 37 135 142 0 58 -21 112 -48 127
-12 6 -48 11 -81 11 l-61 0 0 -140z"/>
<path d="M3052 1368 c-18 -101 -33 -186 -32 -190 0 -9 140 -11 140 -2 0 16
-62 342 -68 357 -4 11 -20 -52 -40 -165z"/>
</g>
</svg>
